<svg xmlns="http://www.w3.org/2000/svg" viewBox="0 0 56.48 36.6"><title>Ресурс 1</title><g id="Слой_2" data-name="Слой 2"><g id="Capa_1" data-name="Capa 1"><path d="M24.25,16.37H20V11h4.28v1.12h-3v1h2.93v1.1H21.25v1.07h3Zm-9.55,0-1.86-4.21v4.21H10.23l-.49-1.2H7.07l-.5,1.2H5.18L7.47,11h1.9l2.18,5.08V11h2.09l1.68,3.64L16.87,11H19v5.37H17.7v-4.2l-1.86,4.2ZM9.27,14.05,8.4,11.91l-.87,2.14ZM30,22c0,1.49-1.11,1.8-2.23,1.8h-1.6v1.8H23.7l-1.58-1.78L20.47,25.6H15.39V20.24h5.16L22.13,22l1.63-1.76h4.1C28.88,20.24,30,20.52,30,22Zm-8.73.9-1.4-1.56H16.67v1h2.82v1.1H16.67v1.07h3.15Zm3.62-2.1-2,2.12,2,2.19ZM28.65,22c0-.47-.32-.66-.78-.66H26.19v1.37h1.66C28.34,22.71,28.65,22.47,28.65,22Zm-2.22-5.64H25.14V11h3a3,3,0,0,1,1.55.26,1.26,1.26,0,0,1,.65,1.19,1.51,1.51,0,0,1-.9,1.43,1.49,1.49,0,0,1,.64.45,1.54,1.54,0,0,1,.21,1v1.06H28.94v-.68a1.61,1.61,0,0,0-.2-1,1.26,1.26,0,0,0-.93-.23H26.42Zm0-3.06H28a1.2,1.2,0,0,0,.64-.11.55.55,0,0,0,.26-.51.49.49,0,0,0-.27-.47,1.33,1.33,0,0,0-.61-.1H26.42v1.19ZM32.34,11H31v5.37h1.31Zm1.32,4.77a2.7,2.7,0,0,1-.69-2,2.86,2.86,0,0,1,.69-2.1A2.6,2.6,0,0,1,35.61,11h1.24v1.15H35.64a1.23,1.23,0,0,0-1,.32,1.77,1.77,0,0,0-.37,1.22,1.84,1.84,0,0,0,.35,1.26,1.24,1.24,0,0,0,.89.28h.58L37.92,11h1.92L42,16.08V11h2l2.26,3.74V11h1.31v5.37H45.71l-2.43-4v4H40.67l-.5-1.2H37.5L37,16.37h-1.5A2.7,2.7,0,0,1,33.66,15.77ZM38,14.05h1.77l-.89-2.14Zm-2.69-.95a1.3,1.3,0,0,0-.1.58,1.36,1.36,0,0,0,.1.63,1,1,0,0,0,.25,0l.56-1.3h-.44C35.34,13,35.31,13.07,35.27,13.1ZM56.48,1.45V35.15A1.45,1.45,0,0,1,55,36.6H1.45A1.45,1.45,0,0,1,0,35.15V1.45A1.45,1.45,0,0,1,1.45,0H55A1.45,1.45,0,0,1,56.48,1.45ZM14.7,17.25h1.13a.88.88,0,0,0,.81-.53l.17-.38v0a.88.88,0,0,0,.89.89H19a.88.88,0,0,0,.48-.16.87.87,0,0,0,.48.16h4.28a.85.85,0,0,0,.44-.14.87.87,0,0,0,.44.14h1.28a.89.89,0,0,0,.89-.89V15.3H28c0,.09,0,.2,0,.27v.8a.89.89,0,0,0,.89.88h1.29a.85.85,0,0,0,.4-.11.88.88,0,0,0,.4.11h1.31a.87.87,0,0,0,.85-.71,3.72,3.72,0,0,0,2.32.71H37a.88.88,0,0,0,.82-.56l.26-.64h1.48l.27.65a.89.89,0,0,0,.82.55h2.61a.89.89,0,0,0,.89-.89v-.85L45,16.82a.89.89,0,0,0,.76.43h1.82a.89.89,0,0,0,.89-.89V11a.89.89,0,0,0-.89-.89H46.22a.89.89,0,0,0-.89.89v.55l-.61-1a.88.88,0,0,0-.76-.43H42a.89.89,0,0,0-.89.89v.75l-.47-1.1a.89.89,0,0,0-.81-.54H37.92a.88.88,0,0,0-.53.18.88.88,0,0,0-.53-.18H35.62a3.53,3.53,0,0,0-2.41.75.87.87,0,0,0-.86-.75H31a.88.88,0,0,0-.79.5c-.06,0-.1-.09-.16-.12a3.77,3.77,0,0,0-2-.37h-3a.86.86,0,0,0-.44.14.85.85,0,0,0-.44-.14H20a.86.86,0,0,0-.48.16.87.87,0,0,0-.48-.16H16.88a.88.88,0,0,0-.81.54l-.76,1.8-.84-1.82a.89.89,0,0,0-.81-.51h-2.1a.89.89,0,0,0-.89.89v.77l-.48-1.12a.89.89,0,0,0-.81-.54H7.47a.89.89,0,0,0-.82.54L4.36,16a.89.89,0,0,0,.81,1.24H6.57a.88.88,0,0,0,.82-.55l.27-.65H9.14l.27.65a.89.89,0,0,0,.82.55h2.61a.89.89,0,0,0,.89-.89v0l.17.38A.88.88,0,0,0,14.7,17.25Zm37.49,6.66a2.36,2.36,0,0,0-.64-1.76l0,0a.88.88,0,0,0,.4-.75V20.24a.89.89,0,0,0-.88-.89H48.47a2.83,2.83,0,0,0-1.84.59.88.88,0,0,0-.83-.59H43.23a3,3,0,0,0-1.69.46.88.88,0,0,0-.76-.46H36.5a.88.88,0,0,0-.78.49c-.06,0-.1-.09-.17-.13a4,4,0,0,0-2-.36h-3a.88.88,0,0,0-.78.49,3.53,3.53,0,0,0-2-.49h-4.1a.89.89,0,0,0-.65.28l-1,1-.93-1a.88.88,0,0,0-.66-.29H15.39a.89.89,0,0,0-.89.89V25.6a.89.89,0,0,0,.89.89h5.08a.89.89,0,0,0,.65-.28l1-1.06.93,1a.89.89,0,0,0,.66.3h2.49a.89.89,0,0,0,.89-.89v-.92h.71a3.75,3.75,0,0,0,1.95-.45V25.6a.89.89,0,0,0,.89.89h1.29a.89.89,0,0,0,.89-.89V24.53h.74c0,.1,0,.21,0,.29v.78a.89.89,0,0,0,.89.89h1.29a.87.87,0,0,0,.39-.1.85.85,0,0,0,.39.1h4.28a.87.87,0,0,0,.38-.1.87.87,0,0,0,.38.1H44A3.27,3.27,0,0,0,46,25.95a.89.89,0,0,0,.81.54h2.5C51.11,26.49,52.19,25.53,52.19,23.91Zm-8-1.57-.69,0a1.49,1.49,0,0,1-.5-.06.45.45,0,0,1-.09-.79.87.87,0,0,1,.51-.1h2.35V20.23H43.24c-1.35,0-1.83.82-1.83,1.6,0,1.7,1.5,1.62,2.7,1.66a.67.67,0,0,1,.46.12.46.46,0,0,1,.16.35.47.47,0,0,1-.15.35.75.75,0,0,1-.52.13H41.56V25.6h2.5c1.29,0,2-.54,2-1.69a1.49,1.49,0,0,0-.38-1.14A2.1,2.1,0,0,0,44.22,22.34Zm-9.33.77a1.38,1.38,0,0,1,.63.45,1.54,1.54,0,0,1,.21,1V25.6H34.43v-.67c0-.32,0-.8-.21-1.05a1.25,1.25,0,0,0-.94-.24H31.92v2H30.63V20.24h3a3.19,3.19,0,0,1,1.54.25,1.26,1.26,0,0,1,.66,1.19A1.51,1.51,0,0,1,34.88,23.11Zm-.51-1.18a.51.51,0,0,0-.26-.48,1.27,1.27,0,0,0-.61-.1H31.91v1.21h1.56a1.23,1.23,0,0,0,.63-.11A.58.58,0,0,0,34.37,21.93ZM36.5,25.6h4.28V24.49h-3V23.42h2.93v-1.1H37.78v-1h3V20.24H36.5Zm13-3.26-.69,0a1.5,1.5,0,0,1-.5-.06.45.45,0,0,1-.09-.79.88.88,0,0,1,.51-.1H51V20.23H48.48c-1.34,0-1.83.82-1.83,1.6,0,1.7,1.5,1.62,2.7,1.66a.68.68,0,0,1,.46.12A.46.46,0,0,1,50,24a.48.48,0,0,1-.15.35.75.75,0,0,1-.52.13H46.8V25.6h2.5c1.29,0,2-.54,2-1.69a1.49,1.49,0,0,0-.38-1.14A2.09,2.09,0,0,0,49.46,22.34Z"/></g></g></svg>