<svg xmlns="http://www.w3.org/2000/svg" viewBox="0 0 56.48 36.6"><title>Ресурс 1</title><g id="Слой_2" data-name="Слой 2"><g id="Capa_1" data-name="Capa 1"><path d="M10.93,15.11a2.24,2.24,0,0,1,.72,1.65,2.28,2.28,0,0,1-.72,1.67A2.45,2.45,0,0,1,9.16,19H8.81V14.57h.35A2.4,2.4,0,0,1,10.93,15.11Zm37.6-1.29a.4.4,0,1,1,.4.42A.41.41,0,0,1,48.53,13.83Zm.19.29h.14v-.23l.16.23h.17L49,13.88a.16.16,0,0,0,.13-.16c0-.12-.08-.18-.22-.18h-.19v.58ZM56.48,1.45V35.15A1.45,1.45,0,0,1,55,36.6H1.45A1.45,1.45,0,0,1,0,35.15V1.45A1.45,1.45,0,0,1,1.45,0H55A1.45,1.45,0,0,1,56.48,1.45Zm-8,12.37a.51.51,0,1,0,.51-.51A.51.51,0,0,0,48.43,13.83Zm-4.34,6.27h1.29V17.42h.17l1.79,2.67h1.6l-2.09-2.8a1.77,1.77,0,0,0,1.51-1.88c0-1.24-.86-2-2.35-2H44.09v6.65Zm-4.53,0h3.67V19H40.85V17.17h2.29V16H40.85V14.57h2.38V13.45H39.56Zm-7-6.65,2.82,6.81h.69L39,13.45h-1.4l-1.79,4.46L34,13.45ZM25.92,16.8a3.53,3.53,0,0,0,6.91,1c0-.06,0-.12,0-.18s0-.1,0-.15a3.49,3.49,0,0,0,.07-.71,3.53,3.53,0,1,0-7.07,0Zm-5.56,0a3.44,3.44,0,0,0,3.51,3.47,3.55,3.55,0,0,0,1.63-.39V18.33a2.07,2.07,0,0,1-1.56.73,2.17,2.17,0,0,1-2.23-2.29,2.21,2.21,0,0,1,2.17-2.28,2.17,2.17,0,0,1,1.63.75V13.71a3.3,3.3,0,0,0-1.59-.41A3.49,3.49,0,0,0,20.36,16.78Zm-7.38,0a3.3,3.3,0,0,0-3.57-3.33H7.52v6.65H9.41a3.46,3.46,0,0,0,2.37-.77A3.34,3.34,0,0,0,13,16.78Zm1.89-3.33h-1.3v6.65h1.3ZM20,18.07C20,17,19.52,16.54,18,16c-.78-.29-1-.48-1-.84s.41-.74,1-.74a1.34,1.34,0,0,1,1,.54l.68-.89a2.91,2.91,0,0,0-2-.74,2,2,0,0,0-2.07,1.9c0,.92.42,1.38,1.63,1.82a5.17,5.17,0,0,1,.9.38.79.79,0,0,1,.39.69,1,1,0,0,1-1,.94,1.53,1.53,0,0,1-1.41-.89l-.84.81a2.58,2.58,0,0,0,2.3,1.27A2.15,2.15,0,0,0,20,18.07Zm35.51,4.8S43,31.66,20.2,35.59H55.47ZM47,15.48c0-.65-.44-1-1.25-1h-.4v2h.38C46.59,16.51,47,16.15,47,15.48Zm2-1.76s0-.08-.1-.08h0v.15h0C49,13.79,49,13.77,49,13.72Z"/></g></g></svg>