<svg xmlns="http://www.w3.org/2000/svg" viewBox="0 0 56.48 36.6"><title>Ресурс 1</title><g id="Слой_2" data-name="Слой 2"><g id="Capa_1" data-name="Capa 1"><path d="M15.05,15.87a5.33,5.33,0,0,0-1.87.34L13,17.54a4.87,4.87,0,0,1,1.68-.27c.57,0,1,.06,1,.53a1,1,0,0,1-.05.39s-.45,0-.66,0c-1.34,0-2.74.57-2.74,2.29a1.46,1.46,0,0,0,1.49,1.66,2,2,0,0,0,1.58-.71l-.05.59h1.36l.61-4.25A1.83,1.83,0,0,0,15.05,15.87Zm-.76,4.94a.56.56,0,0,1-.6-.58c0-.42.23-.93,1.36-.93a1,1,0,0,1,.34,0C15.41,19.59,15.22,20.81,14.29,20.81Zm4.82-3c0,.77,1.84.39,1.84,2.31s-2,2-2.33,2a5,5,0,0,1-1.73-.19l.21-1.35a4.94,4.94,0,0,0,1.37.24c.42,0,1,0,1-.54,0-.75-1.93-.57-1.93-2.33,0-1.56,1.16-2,2.3-2a7.2,7.2,0,0,1,1.42.12L21,17.37s-.84-.07-1.05-.07C19.41,17.3,19.11,17.42,19.11,17.8Zm3.66,2.35c0,.21,0,.5.56.5.14,0,.29,0,.4,0l-.19,1.31a4,4,0,0,1-1.16.2,1.15,1.15,0,0,1-1.23-1.31c0-.61.88-5.66.91-5.69h1.54l-.16.9h.77L24,17.47h-.82Zm6-.64a11.08,11.08,0,0,0,.2-1.41,2.07,2.07,0,0,0-2.2-2.26c-1.55,0-2.7,1.67-2.7,3.56a2.42,2.42,0,0,0,2.67,2.7,3.91,3.91,0,0,0,1.63-.25l.27-1.49a4.8,4.8,0,0,1-1.64.38c-1.66,0-1.37-1.24-1.37-1.24Zm-2-2.28c.87,0,.71,1,.71,1.06H25.73C25.73,18.19,25.89,17.23,26.74,17.23Zm-14-2.59L11.52,22H9.94l.88-5.54L8.84,22H7.77l-.14-5.54L6.7,22H5.21l1.23-7.35H8.69l.08,4.51,1.52-4.51Zm19.52-1h-8c.08-.15.36-.75.78-1.55h6.61A14.72,14.72,0,0,1,32.26,13.68ZM30.8,10.6H25.89c.32-.52.66-1.05,1-1.55h2.75A14.68,14.68,0,0,1,30.8,10.6ZM28.24,29.05a14.34,14.34,0,0,1-1.48-1.58h3A14.49,14.49,0,0,1,28.27,29h0ZM30.82,26H25.67a14.33,14.33,0,0,1-.86-1.55h6.84A14.51,14.51,0,0,1,30.82,26Zm1.83-10a5.94,5.94,0,0,0-.57,1.79c-1.07-.38-1.16,1.69-1.6,4.25H28.89l1-6h1.44l-.14.87s.51-.94,1.2-.94A1.56,1.56,0,0,1,32.65,16Zm2.86,4.64a3.71,3.71,0,0,0,1.28-.38l-.28,1.68a7.15,7.15,0,0,1-1.35.21c-1.84,0-2.78-1.27-2.78-3.2,0-2.9,1.73-4.45,3.51-4.45a5.53,5.53,0,0,1,1.74.38l-.25,1.64A2.75,2.75,0,0,0,36,16.05c-1,0-2,1-2,2.82A1.53,1.53,0,0,0,35.51,20.61Zm15.07.53a.43.43,0,0,0-.17.17.47.47,0,0,0-.06.23.46.46,0,0,0,.06.23.45.45,0,0,0,.17.17.48.48,0,0,0,.23.06A.47.47,0,0,0,51,22a.47.47,0,0,0,.24-.41.47.47,0,0,0-.06-.23.42.42,0,0,0-.18-.17.47.47,0,0,0-.23-.06A.48.48,0,0,0,50.57,21.14Zm.57.21a.4.4,0,0,1,.05.19.39.39,0,0,1-.05.19.38.38,0,0,1-.15.15.39.39,0,0,1-.39,0,.37.37,0,0,1-.15-.15.38.38,0,0,1-.05-.19.38.38,0,0,1,.05-.19.36.36,0,0,1,.15-.15.39.39,0,0,1,.19,0,.4.4,0,0,1,.19,0A.36.36,0,0,1,51.14,21.35Zm-6.27-1.78c0,1.26.63,2.5,1.91,2.5a1.93,1.93,0,0,0,1.44-.65l-.07.55h1.5l1.18-7.34H49.29L49,16.72a2,2,0,0,0-1.49-.8C46.06,15.91,44.88,17.62,44.88,19.58Zm3.7-.9c0,.82-.4,1.9-1.24,1.9-.56,0-.82-.47-.82-1.2,0-1.2.54-2,1.22-2S48.58,17.78,48.58,18.68Zm2.51,7.73,0,0a.16.16,0,0,0,.1,0,.14.14,0,0,0,0-.1.13.13,0,0,0,0-.07.12.12,0,0,0-.06,0h-.3v.51h.08v-.22h0l.06,0a.45.45,0,0,1,.09.12l0,.08h.1l-.06-.1ZM51,26.32h-.1v-.15h.17l0,0a.07.07,0,0,1,0,0,.07.07,0,0,1,0,.06A.16.16,0,0,1,51,26.32ZM55,0H1.45A1.45,1.45,0,0,0,0,1.45V35.15A1.45,1.45,0,0,0,1.45,36.6H55a1.45,1.45,0,0,0,1.45-1.45V1.45A1.45,1.45,0,0,0,55,0ZM51.41,26.58a.44.44,0,0,1-.17.17.47.47,0,0,1-.47,0,.45.45,0,0,1-.17-.17.47.47,0,0,1-.06-.23.48.48,0,0,1,.06-.23.43.43,0,0,1,.17-.17.49.49,0,0,1,.23-.06.49.49,0,0,1,.23.06.43.43,0,0,1,.17.17.48.48,0,0,1,.06.23A.46.46,0,0,1,51.41,26.58Zm1-8.28A14.49,14.49,0,0,1,28.24,29.05,14.49,14.49,0,1,1,18.43,3.81h.09a14.44,14.44,0,0,1,9.72,3.75A14.49,14.49,0,0,1,52.46,18.29Zm-1.86,3v.5h.08v-.21h0l.07,0a.51.51,0,0,1,.09.12l0,.08H51l-.06-.1-.07-.1,0,0a.15.15,0,0,0,.1,0,.14.14,0,0,0,0-.1.13.13,0,0,0,0-.07l-.06,0h-.3Zm.29.1a.06.06,0,0,1,0,0,.07.07,0,0,1,0,.06.16.16,0,0,1-.1,0h-.1v-.15h.17ZM40.07,15.87a5.32,5.32,0,0,0-1.87.34L38,17.54a4.88,4.88,0,0,1,1.68-.27c.58,0,1,.06,1,.53a1,1,0,0,1-.05.39s-.45,0-.66,0c-1.33,0-2.74.57-2.74,2.29a1.46,1.46,0,0,0,1.49,1.66,2,2,0,0,0,1.58-.71l-.05.59h1.36l.61-4.25A1.82,1.82,0,0,0,40.07,15.87Zm-.76,4.94a.56.56,0,0,1-.6-.58c0-.42.23-.93,1.36-.93a1,1,0,0,1,.34,0C40.43,19.59,40.24,20.81,39.31,20.81ZM45,17.76c-1.07-.38-1.15,1.69-1.6,4.25H41.85l1-6h1.44l-.14.87s.51-.94,1.2-.94a1.63,1.63,0,0,1,.3,0A5.93,5.93,0,0,0,45,17.76Z"/></g></g></svg>