<svg xmlns="http://www.w3.org/2000/svg" viewBox="0 0 56.48 36.6"><title>Ресурс 1</title><g id="Слой_2" data-name="Слой 2"><g id="Capa_1" data-name="Capa 1"><path d="M55,0H1.45A1.45,1.45,0,0,0,0,1.45V35.15A1.45,1.45,0,0,0,1.45,36.6H55a1.45,1.45,0,0,0,1.45-1.45V1.45A1.45,1.45,0,0,0,55,0ZM4.37,11.06h6a1.56,1.56,0,0,1,1.69,1.16l1.31,6.31c-1.29-3.3-4.39-6-9.08-7.18Zm7.29,14.38L8.19,13.54a15.27,15.27,0,0,1,5.39,5.91L14,20.93l3.81-9.73h4.12L15.78,25.44Zm13.27,0H21l2.43-14.27h3.89Zm6.77.21a12.31,12.31,0,0,1-4.33-.76l.55-3.19.5.23a8.15,8.15,0,0,0,3.66.75c1.12,0,2.31-.44,2.33-1.39,0-.62-.5-1.07-2-1.77S29,17.7,29,15.65c0-2.77,2.73-4.71,6.57-4.71a10,10,0,0,1,3.48.6l-.53,3.09-.35-.17a7.17,7.17,0,0,0-2.91-.55c-1.52,0-2.23.63-2.23,1.23s.82,1.11,2.18,1.77c2.24,1,3.28,2.25,3.27,3.88C38.44,23.75,35.79,25.67,31.7,25.67Zm16.85-.21s-.35-1.64-.47-2.14h-5c-.15.38-.82,2.14-.82,2.14H38.2L44,12.38a1.94,1.94,0,0,1,2-1.18h3l3.15,14.26Z"/></g></g></svg>